# xmcd
#
# Track frame offsets: 
#        150
#        15530
#        30402
#        49458
#        59948
#        78643
#        93722
#        106647
#        117819
#        133628
#        147938
#        160122
#        184226
#        200921
#        219756
#        235686
#        249535
#        262317
#        275760
#        294392
#
# Disc length: 4144 seconds
#
# Revision: 0
# Processed by: cddbd v1.5.2PL0 Copyright (c) Steve Scherf et al.
# Submitted via: ExactAudioCopy v0.99pb5
#
DISCID=31102e14
DTITLE=Stui French - Johnny Cash The Concert
DYEAR=2018
DGENRE=Country
TTITLE0=Cry! Cry! Cry!
TTITLE1=I Still Miss Someone
TTITLE2=The Ballard Of Ira Hayes
TTITLE3=I Guess Things Happen That Way
TTITLE4=Sunday Morning Coming Down
TTITLE5=Nine Pound Hammer
TTITLE6=Folsom Prison Blues
TTITLE7=Flowers On The Wall
TTITLE8=If I Were A Carpenter
TTITLE9=It Ain't Me Babe
TTITLE10=Daddy Sang Bass
TTITLE11=Bird On A Wire
TTITLE12=Hurt
TTITLE13=A Boy Names Sue
TTITLE14=Cocaine Blues
TTITLE15=Ring Of Fire
TTITLE16=Dark As a Dungeon
TTITLE17=I Got Stripes
TTITLE18=Long Black Veil
TTITLE19=Were You There When They Crucified My Lord
EXTD=
EXTT0=Cry! Cry! Cry!
EXTT1=
EXTT2=
EXTT3=
EXTT4=
EXTT5=
EXTT6=
EXTT7=
EXTT8=
EXTT9=
EXTT10=
EXTT11=
EXTT12=
EXTT13=
EXTT14=
EXTT15=
EXTT16=
EXTT17=
EXTT18=
EXTT19=
PLAYORDER=
